<svg width="80" height="24" viewBox="0 0 80 24" fill="none" xmlns="http://www.w3.org/2000/svg">
<g clip-path="url(#clip0_10_1123)">
<path d="M12 6.375C12 9.4816 9.53302 12 6.48982 12H0.979614V6.375C0.979614 3.26839 3.44661 0.75 6.48982 0.75C9.53302 0.75 12 3.26839 12 6.375Z" fill="#F2994A"/>
<path d="M12 17.625C12 14.5184 14.467 12 17.5102 12H23.0204V17.625C23.0204 20.7316 20.5534 23.25 17.5102 23.25C14.467 23.25 12 20.7316 12 17.625Z" fill="#F2994A"/>
<path d="M0.979614 17.625C0.979614 20.7316 3.44661 23.25 6.48982 23.25H12V17.625C12 14.5184 9.53302 12 6.48982 12C3.44661 12 0.979614 14.5184 0.979614 17.625Z" fill="#F2994A"/>
<path d="M23.0204 6.375C23.0204 3.26839 20.5534 0.75 17.5102 0.75H12V6.375C12 9.4816 14.467 12 17.5102 12C20.5534 12 23.0204 9.4816 23.0204 6.375Z" fill="#F2994A"/>
</g>
<path d="M38.368 6.832V18H36.128V13.248H31.344V18H29.104V6.832H31.344V11.424H36.128V6.832H38.368ZM48.4928 13.376C48.4928 13.696 48.4714 13.984 48.4288 14.24H41.9488C42.0021 14.88 42.2261 15.3813 42.6208 15.744C43.0154 16.1067 43.5008 16.288 44.0768 16.288C44.9088 16.288 45.5008 15.9307 45.8528 15.216H48.2688C48.0128 16.0693 47.5221 16.7733 46.7968 17.328C46.0714 17.872 45.1808 18.144 44.1248 18.144C43.2714 18.144 42.5034 17.9573 41.8208 17.584C41.1488 17.2 40.6208 16.6613 40.2368 15.968C39.8634 15.2747 39.6768 14.4747 39.6768 13.568C39.6768 12.6507 39.8634 11.8453 40.2368 11.152C40.6101 10.4587 41.1328 9.92533 41.8048 9.552C42.4768 9.17867 43.2501 8.992 44.1248 8.992C44.9674 8.992 45.7194 9.17333 46.3808 9.536C47.0528 9.89867 47.5701 10.416 47.9328 11.088C48.3061 11.7493 48.4928 12.512 48.4928 13.376ZM46.1728 12.736C46.1621 12.16 45.9541 11.7013 45.5488 11.36C45.1434 11.008 44.6474 10.832 44.0608 10.832C43.5061 10.832 43.0368 11.0027 42.6528 11.344C42.2794 11.6747 42.0501 12.1387 41.9648 12.736H46.1728ZM49.2318 13.536C49.2318 12.64 49.4078 11.8453 49.7598 11.152C50.1224 10.4587 50.6131 9.92533 51.2318 9.552C51.8504 9.17867 52.5384 8.992 53.2958 8.992C53.8718 8.992 54.4211 9.12 54.9438 9.376C55.4664 9.62133 55.8824 9.952 56.1918 10.368V6.16H58.4638V18H56.1918V16.688C55.9144 17.1253 55.5251 17.4773 55.0238 17.744C54.5224 18.0107 53.9411 18.144 53.2798 18.144C52.5331 18.144 51.8504 17.952 51.2318 17.568C50.6131 17.184 50.1224 16.6453 49.7598 15.952C49.4078 15.248 49.2318 14.4427 49.2318 13.536ZM56.2078 13.568C56.2078 13.024 56.1011 12.56 55.8878 12.176C55.6744 11.7813 55.3864 11.4827 55.0238 11.28C54.6611 11.0667 54.2718 10.96 53.8558 10.96C53.4398 10.96 53.0558 11.0613 52.7038 11.264C52.3518 11.4667 52.0638 11.7653 51.8398 12.16C51.6264 12.544 51.5198 13.0027 51.5198 13.536C51.5198 14.0693 51.6264 14.5387 51.8398 14.944C52.0638 15.3387 52.3518 15.6427 52.7038 15.856C53.0664 16.0693 53.4504 16.176 53.8558 16.176C54.2718 16.176 54.6611 16.0747 55.0238 15.872C55.3864 15.6587 55.6744 15.36 55.8878 14.976C56.1011 14.5813 56.2078 14.112 56.2078 13.568ZM64.2675 18.144C63.4142 18.144 62.6462 17.9573 61.9635 17.584C61.2808 17.2 60.7422 16.6613 60.3475 15.968C59.9635 15.2747 59.7715 14.4747 59.7715 13.568C59.7715 12.6613 59.9688 11.8613 60.3635 11.168C60.7688 10.4747 61.3182 9.94133 62.0115 9.568C62.7048 9.184 63.4782 8.992 64.3315 8.992C65.1848 8.992 65.9582 9.184 66.6515 9.568C67.3448 9.94133 67.8888 10.4747 68.2835 11.168C68.6888 11.8613 68.8915 12.6613 68.8915 13.568C68.8915 14.4747 68.6835 15.2747 68.2675 15.968C67.8622 16.6613 67.3075 17.2 66.6035 17.584C65.9102 17.9573 65.1315 18.144 64.2675 18.144ZM64.2675 16.192C64.6728 16.192 65.0515 16.096 65.4035 15.904C65.7662 15.7013 66.0542 15.4027 66.2675 15.008C66.4808 14.6133 66.5875 14.1333 66.5875 13.568C66.5875 12.7253 66.3635 12.08 65.9155 11.632C65.4782 11.1733 64.9395 10.944 64.2995 10.944C63.6595 10.944 63.1208 11.1733 62.6835 11.632C62.2568 12.08 62.0435 12.7253 62.0435 13.568C62.0435 14.4107 62.2515 15.0613 62.6675 15.52C63.0942 15.968 63.6275 16.192 64.2675 16.192ZM75.1266 9.008C76.1826 9.008 77.036 9.344 77.6866 10.016C78.3373 10.6773 78.6626 11.6053 78.6626 12.8V18H76.4226V13.104C76.4226 12.4 76.2466 11.8613 75.8946 11.488C75.5426 11.104 75.0626 10.912 74.4546 10.912C73.836 10.912 73.3453 11.104 72.9826 11.488C72.6306 11.8613 72.4546 12.4 72.4546 13.104V18H70.2146V9.136H72.4546V10.24C72.7533 9.856 73.132 9.55733 73.5906 9.344C74.06 9.12 74.572 9.008 75.1266 9.008Z" fill="white"/>
<defs>
<clipPath id="clip0_10_1123">
<rect width="24" height="24" fill="white"/>
</clipPath>
</defs>
</svg>
