<svg width="24" height="24" viewBox="0 0 24 24" fill="none" xmlns="http://www.w3.org/2000/svg">
<path d="M19.96 8.95999C19.29 8.21999 18.28 7.78999 16.88 7.63999V6.87999C16.88 5.50999 16.3 4.18999 15.28 3.26999C14.25 2.32999 12.91 1.88999 11.52 2.01999C9.12999 2.24999 7.11999 4.55999 7.11999 7.05999V7.63999C5.71999 7.78999 4.70999 8.21999 4.03999 8.95999C3.06999 10.04 3.09999 11.48 3.20999 12.48L3.90999 18.05C4.11999 20 4.90999 22 9.20999 22H14.79C19.09 22 19.88 20 20.09 18.06L20.79 12.47C20.9 11.48 20.92 10.04 19.96 8.95999ZM11.66 3.40999C12.66 3.31999 13.61 3.62999 14.35 4.29999C15.08 4.95999 15.49 5.89999 15.49 6.87999V7.57999H8.50999V7.05999C8.50999 5.27999 9.97999 3.56999 11.66 3.40999ZM8.41999 13.15H8.40999C7.85999 13.15 7.40999 12.7 7.40999 12.15C7.40999 11.6 7.85999 11.15 8.40999 11.15C8.96999 11.15 9.41999 11.6 9.41999 12.15C9.41999 12.7 8.96999 13.15 8.41999 13.15ZM15.42 13.15H15.41C14.86 13.15 14.41 12.7 14.41 12.15C14.41 11.6 14.86 11.15 15.41 11.15C15.97 11.15 16.42 11.6 16.42 12.15C16.42 12.7 15.97 13.15 15.42 13.15Z" fill="#212121"/>
</svg>
