<svg width="24" height="24" viewBox="0 0 24 24" fill="none" xmlns="http://www.w3.org/2000/svg">
<path d="M17.8501 16.44C17.9448 16.5339 17.998 16.6617 17.998 16.795C17.998 16.9283 17.9448 17.0561 17.8501 17.15L17.1501 17.85C17.0562 17.9447 16.9284 17.9979 16.7951 17.9979C16.6618 17.9979 16.534 17.9447 16.4401 17.85L12.0001 13.41L7.5601 17.85C7.46621 17.9447 7.33842 17.9979 7.2051 17.9979C7.07178 17.9979 6.94398 17.9447 6.8501 17.85L6.1501 17.15C6.05544 17.0561 6.0022 16.9283 6.0022 16.795C6.0022 16.6617 6.05544 16.5339 6.1501 16.44L10.5901 12L6.1501 7.56C6.05544 7.46612 6.0022 7.33832 6.0022 7.205C6.0022 7.07169 6.05544 6.94389 6.1501 6.85L6.8501 6.15C6.94398 6.05535 7.07178 6.00211 7.2051 6.00211C7.33842 6.00211 7.46621 6.05535 7.5601 6.15L12.0001 10.59L16.4401 6.15C16.534 6.05535 16.6618 6.00211 16.7951 6.00211C16.9284 6.00211 17.0562 6.05535 17.1501 6.15L17.8501 6.85C17.9448 6.94389 17.998 7.07169 17.998 7.205C17.998 7.33832 17.9448 7.46612 17.8501 7.56L13.4101 12L17.8501 16.44Z" fill="black"/>
</svg>
