<svg width="24" height="24" viewBox="0 0 24 24" fill="none" xmlns="http://www.w3.org/2000/svg">
<path d="M12.75 15.92H13.4C14.05 15.92 14.59 15.34 14.59 14.64C14.59 13.77 14.28 13.6 13.77 13.42L12.76 13.07V15.92H12.75Z" fill="#292D32"/>
<path d="M11.9701 1.90001C6.45007 1.92001 1.98007 6.41001 2.00007 11.93C2.02007 17.45 6.51007 21.92 12.0301 21.9C17.5501 21.88 22.0201 17.39 22.0001 11.87C21.9801 6.35001 17.4901 1.89001 11.9701 1.90001ZM14.2601 12C15.0401 12.27 16.0901 12.85 16.0901 14.64C16.0901 16.18 14.8801 17.42 13.4001 17.42H12.7501V18C12.7501 18.41 12.4101 18.75 12.0001 18.75C11.5901 18.75 11.2501 18.41 11.2501 18V17.42H10.8901C9.25007 17.42 7.92007 16.04 7.92007 14.34C7.92007 13.93 8.26007 13.59 8.67007 13.59C9.08007 13.59 9.42007 13.93 9.42007 14.34C9.42007 15.21 10.0801 15.92 10.8901 15.92H11.2501V12.54L9.74007 12C8.96007 11.73 7.91007 11.15 7.91007 9.36001C7.91007 7.82001 9.12007 6.58001 10.6001 6.58001H11.2501V6.00001C11.2501 5.59001 11.5901 5.25001 12.0001 5.25001C12.4101 5.25001 12.7501 5.59001 12.7501 6.00001V6.58001H13.1101C14.7501 6.58001 16.0801 7.96001 16.0801 9.66001C16.0801 10.07 15.7401 10.41 15.3301 10.41C14.9201 10.41 14.5801 10.07 14.5801 9.66001C14.5801 8.79001 13.9201 8.08001 13.1101 8.08001H12.7501V11.46L14.2601 12Z" fill="#292D32"/>
<path d="M9.41992 9.36999C9.41992 10.24 9.72992 10.41 10.2399 10.59L11.2499 10.94V8.07999H10.5999C9.94992 8.07999 9.41992 8.65999 9.41992 9.36999Z" fill="#292D32"/>
</svg>
