<svg width="24" height="24" viewBox="0 0 24 24" fill="none" xmlns="http://www.w3.org/2000/svg">
<path d="M20.04 6.82L14.28 2.79C12.71 1.69 10.3 1.75 8.78999 2.92L3.77999 6.83C2.77999 7.61 1.98999 9.21 1.98999 10.47V17.37C1.98999 19.92 4.05999 22 6.60999 22H17.39C19.94 22 22.01 19.93 22.01 17.38V10.6C22.01 9.25 21.14 7.59 20.04 6.82ZM12.75 18C12.75 18.41 12.41 18.75 12 18.75C11.59 18.75 11.25 18.41 11.25 18V15C11.25 14.59 11.59 14.25 12 14.25C12.41 14.25 12.75 14.59 12.75 15V18Z" fill="#292D32"/>
</svg>
