<svg width="24" height="24" viewBox="0 0 24 24" fill="none" xmlns="http://www.w3.org/2000/svg">
<path d="M13.7299 3.51L15.4899 7.03C15.7299 7.52 16.3699 7.99 16.9099 8.08L20.0999 8.61C22.1399 8.95 22.6199 10.43 21.1499 11.89L18.6699 14.37C18.2499 14.79 18.0199 15.6 18.1499 16.18L18.8599 19.25C19.4199 21.68 18.1299 22.62 15.9799 21.35L12.9899 19.58C12.4499 19.26 11.5599 19.26 11.0099 19.58L8.01991 21.35C5.87991 22.62 4.57991 21.67 5.13991 19.25L5.84991 16.18C5.97991 15.6 5.74991 14.79 5.32991 14.37L2.84991 11.89C1.38991 10.43 1.85991 8.95 3.89991 8.61L7.08991 8.08C7.61991 7.99 8.25991 7.52 8.49991 7.03L10.2599 3.51C11.2199 1.6 12.7799 1.6 13.7299 3.51Z" stroke="#292D32" stroke-width="1.5" stroke-linecap="round" stroke-linejoin="round"/>
</svg>
